<!-- Generated by IcoMoon.io -->
<svg version="1.1" xmlns="http://www.w3.org/2000/svg" width="32" height="32" viewBox="0 0 32 32">
<path d="M0.852 31.509c0.682 0.89 2.214 0.371 2.894 0 11.052-4.724 15.442-12.019 17.396-17.109-0.573 6.052-4.982 10.223-8.257 13.585 4.021 2.161 6.169 0.078 6.976-1.77s2.102-1.817 3.564-1.911c1.462-0.094 1.371 0.031 2.772-1.112 1.386-1.131 1.222-1.94 0.659-4.73l-0.019-0.094c-0.579-2.866 2.391-3.352 3.458-4.088s1.767-2.976 0.29-4.432-1.843-2.302-1.249-4.15c0.594-1.848 0.746-3.947-0.823-5.168s-3.869-0.125-4.813 1.222c-0.944 1.347-2.132 2.678-3.351 2.146s-1.813-1.425-4.387-0.188c-2.574 1.237-1.447 3.915-1.249 6.046s-1.98-0.345-4.113 2.13c-2.132 2.475 1.021 4.62 1.417 6.186s-0.381 1.457-0.609 1.535c-0.228 0.078-1.813-0.172-2.94 1.519s0.899 3.947 1.219 4.448c0.256 0.401-0.208 0.94-0.472 1.159-1.782 1.457-5.209 2.991-5.879 3.242-0.536 0.2-0.904 0.157-1.021 0.11-1.051-0.674-2.315 0.313-1.462 1.425z"></path>
</svg>
