<!-- Generated by IcoMoon.io -->
<svg version="1.1" xmlns="http://www.w3.org/2000/svg" width="32" height="32" viewBox="0 0 32 32">
<path d="M6.667 26.667c-1.061 0-2.078-0.421-2.828-1.172s-1.172-1.768-1.172-2.828v-13.333c0-1.061 0.421-2.078 1.172-2.828s1.768-1.172 2.828-1.172h18.667c1.061 0 2.078 0.421 2.828 1.172s1.172 1.768 1.172 2.828v13.333c0 1.061-0.421 2.078-1.172 2.828s-1.768 1.172-2.828 1.172h-18.667zM10.167 10.96c-0.136-0.116-0.294-0.203-0.464-0.257s-0.35-0.073-0.527-0.056c-0.178 0.017-0.35 0.069-0.508 0.154s-0.296 0.2-0.407 0.34c-0.112 0.139-0.194 0.3-0.243 0.472s-0.062 0.352-0.040 0.529c0.022 0.177 0.080 0.348 0.17 0.503s0.209 0.289 0.352 0.397l5 4.001c0.709 0.568 1.591 0.877 2.5 0.877s1.791-0.309 2.5-0.877l5-4c0.137-0.109 0.251-0.245 0.335-0.398s0.138-0.322 0.157-0.496c0.019-0.174 0.004-0.35-0.045-0.518s-0.13-0.325-0.24-0.462c-0.109-0.137-0.245-0.251-0.398-0.335s-0.322-0.138-0.496-0.157c-0.174-0.019-0.35-0.004-0.518 0.045s-0.325 0.13-0.462 0.24l-5 4c-0.237 0.189-0.53 0.293-0.833 0.293s-0.597-0.103-0.833-0.293l-5-3.999z"></path>
</svg>
