<!-- Generated by IcoMoon.io -->
<svg version="1.1" xmlns="http://www.w3.org/2000/svg" width="89" height="32" viewBox="0 0 89 32">
<path d="M31.962 26.244c-0.26 0.719-0.798 1.302-1.59 1.346-0.722 0.041-1.326-0.458-1.665-1.087 1.011 1.108 2.551 0.857 3.255-0.259zM73.225 10.027c-0.26 0.067-0.524 0.074-0.783 0.056 1.832-0.552 2.889-2.316 2.624-3.93 0.080 0.234 0.142 0.479 0.156 0.739 0.069 1.331-0.622 2.782-1.997 3.135zM77.178 0.012c-2.447-0.135-4.75 0.86-6.362 2.417-1.175 0.317-2.195 1.106-2.69 2.411-0.576 1.525-0.224 3.232 0.748 4.316 0.318 0.945 0.881 1.879 1.777 2.751 0.525 0.508 1.221 0.058 1.264-0.501 0.928 0.232 1.93 0.155 2.801-0.359 2.563-1.509 2.859-5.417 0.76-7.423-0.335-0.32-0.716-0.578-1.121-0.786 0.683-0.349 1.368-0.698 2.052-1.046 1.635-0.251 4.088 0.796 5.436 1.638 4.081 2.554 5.383 6.998 3.883 11.337-2.513 7.279-11.147 9.135-17.95 7.862-11.067-2.072-21.415-9.379-31.605-14.055-10.914-5.821-28.172-2.452-35.734 6.227-0.497 0.57 0.28 1.369 0.837 0.836 7.42-7.077 20.172-10.049 29.996-7.019 5.274 1.627 10.237 5.432 11.808 10.936 1.246 4.363 0.154 8.469-4.66 10.166-1.867 0.657-7.26 1.040-9.651-0.953 0.653 0.359 1.4 0.52 2.164 0.342 1.635-0.383 2.603-2.046 2.613-3.65 0.012-1.841-1.286-3.368-3.148-3.506-0.92-0.067-1.918 0.216-2.698 0.763-0.192-0.001-0.386 0.079-0.526 0.301-0.097 0.152-0.182 0.303-0.264 0.452-0.253 0.337-0.429 0.724-0.515 1.152-1.732 5.177 5.364 7.844 9.978 7.308 7.204-0.836 10.649-6.801 8.27-13.631-0.815-2.343-2.046-4.318-3.569-5.974 3.831 2.084 7.703 4.1 11.569 6.109 5.156 2.68 10.523 5.495 16.371 6.239 7.923 1.008 16.911-2.117 19.014-10.615 1.728-6.983-3.782-13.658-10.848-14.048z"></path>
</svg>
