<!-- Generated by IcoMoon.io -->
<svg version="1.1" xmlns="http://www.w3.org/2000/svg" width="32" height="32" viewBox="0 0 32 32">
<path d="M20.742 19.208l-0.607 0.604c0 0-1.444 1.435-5.384-2.483s-2.496-5.352-2.496-5.352l0.381-0.381c0.943-0.936 1.032-2.44 0.209-3.539l-1.68-2.244c-1.019-1.36-2.985-1.54-4.152-0.38l-2.093 2.080c-0.577 0.576-0.964 1.32-0.917 2.147 0.12 2.116 1.077 6.667 6.416 11.976 5.663 5.629 10.976 5.853 13.148 5.651 0.688-0.064 1.285-0.413 1.767-0.893l1.893-1.883c1.28-1.271 0.92-3.451-0.717-4.34l-2.547-1.385c-1.075-0.583-2.381-0.412-3.221 0.423z"></path>
</svg>
