<!-- Generated by IcoMoon.io -->
<svg version="1.1" xmlns="http://www.w3.org/2000/svg" width="32" height="32" viewBox="0 0 32 32">
<path fill="#F3D5A1" d="M16.701 32h-1.343l0.244-3.42h-0.059c-2.87-1.954-7.792-6.217-4.519-7.634 0.204-0.081 0.464-0.366-0.122-0.855l-0.006-0.005c-0.769-0.641-8.645-7.203-0.666-7.995 0.448-0.020 1.197-0.257 0.611-1.038-0.733-0.977-4.275-5.924 1.527-5.313 0.265 0.041 0.794-0.073 0.794-0.855 0-0.971 1.026-4.901 2.838-4.886 1.812-0.015 2.839 3.915 2.839 4.886 0 0.782 0.529 0.896 0.794 0.855 5.802-0.611 2.26 4.336 1.527 5.313-0.586 0.782 0.163 1.018 0.611 1.038 7.979 0.792 0.103 7.354-0.666 7.995l-0.006 0.005c-0.586 0.489-0.326 0.773-0.122 0.855 3.273 1.417-1.649 5.679-4.519 7.634l0.244 3.42z"></path>
</svg>
