<!-- Generated by IcoMoon.io -->
<svg version="1.1" xmlns="http://www.w3.org/2000/svg" width="32" height="32" viewBox="0 0 32 32">
<path d="M22.133 7.76c-0.911-1.041-1.413-2.377-1.413-3.76h-4.12v16.533c-0.031 0.895-0.409 1.743-1.053 2.365s-1.505 0.969-2.4 0.969c-1.893 0-3.467-1.547-3.467-3.467 0-2.293 2.213-4.013 4.493-3.307v-4.213c-4.6-0.613-8.627 2.96-8.627 7.52 0 4.44 3.68 7.6 7.587 7.6 4.187 0 7.587-3.4 7.587-7.6v-8.387c1.671 1.2 3.677 1.843 5.733 1.84v-4.12c0 0-2.507 0.12-4.32-1.973z"></path>
</svg>
