<!-- Generated by IcoMoon.io -->
<svg version="1.1" xmlns="http://www.w3.org/2000/svg" width="32" height="32" viewBox="0 0 32 32">
<path d="M28.778 24.253h-3.043c-1.151 0-1.497-0.932-3.56-2.996-1.803-1.737-2.564-1.953-3.020-1.953-0.631 0-0.803 0.173-0.803 1.041v2.736c0 0.74-0.24 1.173-2.173 1.173-1.876-0.126-3.694-0.696-5.307-1.662s-2.972-2.303-3.967-3.898c-2.361-2.941-4.005-6.391-4.8-10.077 0-0.456 0.173-0.869 1.043-0.869h3.040c0.781 0 1.063 0.348 1.369 1.152 1.476 4.344 3.995 8.123 5.017 8.123 0.392 0 0.563-0.173 0.563-1.151v-4.475c-0.129-2.041-1.213-2.213-1.213-2.952 0.014-0.195 0.103-0.377 0.248-0.507s0.336-0.199 0.531-0.19h4.779c0.653 0 0.869 0.325 0.869 1.107v6.040c0 0.652 0.28 0.868 0.477 0.868 0.392 0 0.693-0.216 1.412-0.933 1.54-1.879 2.798-3.972 3.736-6.213 0.095-0.269 0.277-0.5 0.516-0.657s0.523-0.23 0.808-0.21h3.041c0.912 0 1.105 0.456 0.912 1.107-1.107 2.478-2.475 4.83-4.083 7.016-0.328 0.5-0.459 0.76 0 1.347 0.301 0.456 1.368 1.347 2.084 2.193 1.043 1.040 1.908 2.243 2.563 3.56 0.261 0.848-0.173 1.281-1.041 1.281z"></path>
</svg>
