<!-- Generated by IcoMoon.io -->
<svg version="1.1" xmlns="http://www.w3.org/2000/svg" width="32" height="32" viewBox="0 0 32 32">
<path opacity="0.2" fill="#000" d="M16 0.533c8.542 0 15.467 6.925 15.467 15.467s-6.925 15.467-15.467 15.467c-8.542 0-15.467-6.925-15.467-15.467s6.925-15.467 15.467-15.467z"></path>
<path fill="none" stroke-linejoin="miter" stroke-linecap="butt" stroke-miterlimit="4" stroke-width="1.0667" stroke="#000" d="M16 0.533c8.542 0 15.467 6.925 15.467 15.467s-6.925 15.467-15.467 15.467c-8.542 0-15.467-6.925-15.467-15.467s6.925-15.467 15.467-15.467z"></path>
<path d="M11.429 17.829h-1.829v4.571h4.571v-1.829h-2.743v-2.743zM9.6 14.171h1.829v-2.743h2.743v-1.829h-4.571v4.571zM20.571 20.571h-2.743v1.829h4.571v-4.571h-1.829v2.743zM17.829 9.6v1.829h2.743v2.743h1.829v-4.571h-4.571z"></path>
</svg>
