<svg width="1920" height="2000" viewBox="0 0 1920 2000" fill="none" xmlns="http://www.w3.org/2000/svg">
<mask id="path-1-inside-1_71_1347" fill="white">
<path fill-rule="evenodd" clip-rule="evenodd" d="M426.365 401.651V379.735C358.018 354.163 280.775 330.76 206.665 316.429V356.055C263.528 361.664 317.148 373.665 384.195 401.518C444.417 426.535 501.252 457.755 549.397 490.118C614.273 533.733 623.113 553.901 675.572 603.575C871.949 789.581 675.994 660.978 962.335 824.502C1022.87 859.057 1066.24 881.356 1076.56 968.919C1084.78 1038.68 1072.1 1128.23 1044.19 1181.94C948.22 1366.61 804.852 1149.54 758.284 1103.57C432.684 782.052 133.382 946.237 -99.8114 1039.7L-93.1478 1046.18L-12.1622 1037.37L-11.935 1061.87C99.2863 1014.19 211.213 974.65 322.34 1047.6C579.022 1216.09 489.619 1470.3 609.914 1597C792.813 1789.63 958.476 1527.03 1251.13 1549.24C1439.96 1563.59 1726.85 1792.93 1891.69 1627.9C1897.43 1622.16 1902.44 1616.11 1906.8 1609.81L1908.19 1419.32C1889.17 1370.35 1862.23 1326.95 1843.58 1302.07L1671.22 1056.24C1468.1 757.518 1339.37 1048.8 1068.14 852.943C983.187 791.606 890.857 739.036 831.296 671.836C765.115 597.178 701.66 532.302 614.534 470.144C581.837 446.814 518.683 415.377 442.784 385.988C435.977 392.463 430.429 397.751 426.365 401.651ZM426.365 227.352V194.927H492.484L495.81 128.387L146.942 121.213V191.649C151.618 191.682 156.377 191.71 161.286 191.721C263.639 191.937 349.75 204.593 426.365 227.352ZM206.665 424.871V450.454C350.788 478.617 566.606 622.966 625.518 698.617C725.711 827.343 605.171 856.865 546.048 891.02C656.847 918.218 711.612 969.268 771.234 1031.01C845.112 1107.52 899.542 1177.38 971.676 1181.91C1048.34 1003.76 1038.44 938.336 883.911 857.981C688.628 756.441 752.609 773.536 614.784 634.424C524.275 543.06 458.055 494.951 310.762 445.516C290.721 438.791 252.527 431.401 206.665 424.871ZM206.665 522.52V534.188C327.471 582.747 383.278 636.315 277.61 748.152C275.478 750.416 270.253 760.514 268.687 757.778C267.082 754.993 262.4 764.164 259.629 767.671C359.267 777.292 495.372 827.62 588.235 800.916C589.212 695.321 354.12 561.436 206.665 522.52ZM206.665 603.986V608.369L82.2167 726.425C160.82 718.657 238.117 707.361 265.405 655.34C250.695 632.248 230.754 615.737 206.665 603.986ZM-108.241 907.1L-173 968.53L-152.232 988.725C-44.3698 948.611 42.6623 897.512 151.529 869.194C209.825 854.036 274.823 856.094 326.171 841.163C203.627 826.904 108.41 864.206 -6.77625 891.825C-36.7736 899.027 -71.7463 903.51 -108.241 907.1ZM-11.2517 1135.08L-10.8911 1174.36C177.256 1086.9 306.864 1016.12 394.629 1467.9C428.413 1641.87 485.42 1671.59 630.065 1800.77C654.893 1822.94 700.111 1862.52 744.297 1866.85C857.889 1877.93 933.593 1779 985.13 1735.7C1200.37 1554.81 1661.48 1890.32 1904.94 1775.53C1952.33 1753.18 1987.72 1727.44 2013.28 1699.27V1633.45H1970.28C1931.89 1694.06 1836.27 1755.4 1757.92 1756.06C1682.21 1756.7 1533.98 1708.48 1460.99 1685.87C1343.62 1649.5 1307.13 1605.99 1160.99 1615.44C961.591 1628.31 592.699 1976.23 474.076 1419.88C433.489 1229.5 314.327 1010.91 85.6315 1087.77C43.5119 1101.92 15.8969 1118.94 -11.2517 1135.08ZM-10.2024 1248.28L-9.38573 1335.91C55.7567 1323.21 107.705 1315.85 124.142 1319.74C347.218 1372.45 125.646 1696.6 485.171 1931.33C539.074 1966.53 610.563 1979.48 676.261 2000H1053.99C1100.04 1877.84 1168.12 1771.08 1311.81 1835.04C1579.18 1954.05 1499.38 1842.75 1644.45 1904.5C1692.62 1925 1720.24 1960.64 1735.05 2000H2013.28V1793.18C1950.11 1841.08 1869.33 1865.09 1790.1 1860.64C1613.49 1850.72 1475.07 1820.8 1316.05 1770.61C1043.8 1684.72 1058.78 1786.9 911.875 1886.62C715.337 2020.04 618.92 1861.85 522.565 1788.8C384.539 1684.16 362.427 1638.82 319.674 1424.13C278.848 1219.14 243.803 1117.5 41.0241 1223.13C23.9653 1232.02 6.92308 1240.42 -10.2024 1248.28ZM1909.18 1281.47L1909.73 1206.51C1870.97 1154.97 1834.13 1111.04 1811.35 1080.32C1560.64 742.337 1657.42 847.439 1324.92 819.126C1110.47 800.844 956.532 655.812 836.165 567.528C922.021 684.774 1126.05 854.363 1295.05 858.935C1523.43 865.104 1566.89 755.098 1774.08 1102.65C1803.01 1151.2 1859.75 1211.71 1909.18 1281.47ZM1910.5 1099.66L1910.9 1045.25L2004.75 1058.04L2094 980.476L1881.96 799.291L1413.96 362.042C1031.15 375.857 1116.19 425.209 770.107 254.016C729.164 233.765 686.823 213.819 642.232 196.703C612.207 225.243 582.809 253.14 555.699 278.856C685.551 344.31 795.229 441.948 932.322 555.383C1401.11 943.269 1556.86 610.455 1745.78 876.967C1803.7 958.682 1855.94 1028.37 1910.5 1099.66ZM1349.59 301.899L1339.82 292.772C1209.38 315.009 1131.37 295.435 990.034 289.914C1108.62 290.236 974.341 338.434 1349.59 301.899ZM1216.62 177.672L1137.18 103.447C1041.89 93.9708 970.493 51.7433 847.96 0C829.491 17.8544 808.862 37.6949 786.916 58.7229C949.514 123.754 1047.45 183.881 1216.62 177.672ZM-8.76968 1402.5L-7.35921 1554.41C0.226212 1566.25 6.30687 1581.18 10.5216 1599.89C43.5842 1746.68 -44.3421 1833.37 41.9184 2000H472.554C383.595 1952.26 311.9 1883.56 269.708 1818.37C145.671 1626.65 228.56 1426.88 112.197 1388.84C96.1322 1383.59 48.0432 1390.79 -8.76968 1402.5ZM-53.3825 1633.45H-115.41V1901.51C-89.7382 1934.54 -63.3725 1965.98 -38.2673 1995.29C-64.3165 1873.42 -43.8036 1731.12 -53.3825 1633.45ZM1122.75 2000H1664.81C1621.92 1931.18 1501.24 1979.44 1375.98 1935.65C1311.19 1913 1243.66 1853.82 1181.81 1902.21C1155.4 1922.87 1135.02 1960.28 1122.75 2000ZM1323.89 1098.35C1510.04 1034.82 1770.13 1360.16 1719.14 1483.29C1678.82 1580.64 1517.94 1548.36 1431.44 1506.09C1302.77 1443.21 1257.64 1424.01 1100.52 1461.24C902.952 1508.04 643.393 1647.14 681.131 1403.28C694.075 1319.58 734.623 1339.29 805.113 1354.58C1095.5 1417.59 1114.92 1169.67 1323.89 1098.35ZM1163.7 1517.51C1327.39 1490.13 1384.63 1578.33 1524.12 1605.79C1729.58 1646.24 1975.02 1496.09 1599.69 1127.81C1340.92 873.921 1172.14 1127.67 1013.65 1255.78C854.796 1384.17 732.63 1195.21 642.893 1317.93C615.456 1355.48 550.419 1621.03 785.139 1608C902.929 1601.48 1037.82 1538.56 1163.7 1517.51ZM1582.25 1420.87C1473.69 1481.66 1240.4 1226.5 1478.58 1223.83C1541.03 1355.71 1603.76 1343.71 1582.25 1420.87ZM1509.08 1163.98C1194.77 1120.21 1314.93 1421.38 1479.68 1488.51C1568.88 1524.84 1685.02 1489.59 1650.16 1363.81C1636.25 1313.57 1605.49 1302.79 1579.24 1268.12C1559.92 1242.61 1536.44 1201.93 1509.08 1163.98Z"/>
</mask>
<path fill-rule="evenodd" clip-rule="evenodd" d="M426.365 401.651V379.735C358.018 354.163 280.775 330.76 206.665 316.429V356.055C263.528 361.664 317.148 373.665 384.195 401.518C444.417 426.535 501.252 457.755 549.397 490.118C614.273 533.733 623.113 553.901 675.572 603.575C871.949 789.581 675.994 660.978 962.335 824.502C1022.87 859.057 1066.24 881.356 1076.56 968.919C1084.78 1038.68 1072.1 1128.23 1044.19 1181.94C948.22 1366.61 804.852 1149.54 758.284 1103.57C432.684 782.052 133.382 946.237 -99.8114 1039.7L-93.1478 1046.18L-12.1622 1037.37L-11.935 1061.87C99.2863 1014.19 211.213 974.65 322.34 1047.6C579.022 1216.09 489.619 1470.3 609.914 1597C792.813 1789.63 958.476 1527.03 1251.13 1549.24C1439.96 1563.59 1726.85 1792.93 1891.69 1627.9C1897.43 1622.16 1902.44 1616.11 1906.8 1609.81L1908.19 1419.32C1889.17 1370.35 1862.23 1326.95 1843.58 1302.07L1671.22 1056.24C1468.1 757.518 1339.37 1048.8 1068.14 852.943C983.187 791.606 890.857 739.036 831.296 671.836C765.115 597.178 701.66 532.302 614.534 470.144C581.837 446.814 518.683 415.377 442.784 385.988C435.977 392.463 430.429 397.751 426.365 401.651ZM426.365 227.352V194.927H492.484L495.81 128.387L146.942 121.213V191.649C151.618 191.682 156.377 191.71 161.286 191.721C263.639 191.937 349.75 204.593 426.365 227.352ZM206.665 424.871V450.454C350.788 478.617 566.606 622.966 625.518 698.617C725.711 827.343 605.171 856.865 546.048 891.02C656.847 918.218 711.612 969.268 771.234 1031.01C845.112 1107.52 899.542 1177.38 971.676 1181.91C1048.34 1003.76 1038.44 938.336 883.911 857.981C688.628 756.441 752.609 773.536 614.784 634.424C524.275 543.06 458.055 494.951 310.762 445.516C290.721 438.791 252.527 431.401 206.665 424.871ZM206.665 522.52V534.188C327.471 582.747 383.278 636.315 277.61 748.152C275.478 750.416 270.253 760.514 268.687 757.778C267.082 754.993 262.4 764.164 259.629 767.671C359.267 777.292 495.372 827.62 588.235 800.916C589.212 695.321 354.12 561.436 206.665 522.52ZM206.665 603.986V608.369L82.2167 726.425C160.82 718.657 238.117 707.361 265.405 655.34C250.695 632.248 230.754 615.737 206.665 603.986ZM-108.241 907.1L-173 968.53L-152.232 988.725C-44.3698 948.611 42.6623 897.512 151.529 869.194C209.825 854.036 274.823 856.094 326.171 841.163C203.627 826.904 108.41 864.206 -6.77625 891.825C-36.7736 899.027 -71.7463 903.51 -108.241 907.1ZM-11.2517 1135.08L-10.8911 1174.36C177.256 1086.9 306.864 1016.12 394.629 1467.9C428.413 1641.87 485.42 1671.59 630.065 1800.77C654.893 1822.94 700.111 1862.52 744.297 1866.85C857.889 1877.93 933.593 1779 985.13 1735.7C1200.37 1554.81 1661.48 1890.32 1904.94 1775.53C1952.33 1753.18 1987.72 1727.44 2013.28 1699.27V1633.45H1970.28C1931.89 1694.06 1836.27 1755.4 1757.92 1756.06C1682.21 1756.7 1533.98 1708.48 1460.99 1685.87C1343.62 1649.5 1307.13 1605.99 1160.99 1615.44C961.591 1628.31 592.699 1976.23 474.076 1419.88C433.489 1229.5 314.327 1010.91 85.6315 1087.77C43.5119 1101.92 15.8969 1118.94 -11.2517 1135.08ZM-10.2024 1248.28L-9.38573 1335.91C55.7567 1323.21 107.705 1315.85 124.142 1319.74C347.218 1372.45 125.646 1696.6 485.171 1931.33C539.074 1966.53 610.563 1979.48 676.261 2000H1053.99C1100.04 1877.84 1168.12 1771.08 1311.81 1835.04C1579.18 1954.05 1499.38 1842.75 1644.45 1904.5C1692.62 1925 1720.24 1960.64 1735.05 2000H2013.28V1793.18C1950.11 1841.08 1869.33 1865.09 1790.1 1860.64C1613.49 1850.72 1475.07 1820.8 1316.05 1770.61C1043.8 1684.72 1058.78 1786.9 911.875 1886.62C715.337 2020.04 618.92 1861.85 522.565 1788.8C384.539 1684.16 362.427 1638.82 319.674 1424.13C278.848 1219.14 243.803 1117.5 41.0241 1223.13C23.9653 1232.02 6.92308 1240.42 -10.2024 1248.28ZM1909.18 1281.47L1909.73 1206.51C1870.97 1154.97 1834.13 1111.04 1811.35 1080.32C1560.64 742.337 1657.42 847.439 1324.92 819.126C1110.47 800.844 956.532 655.812 836.165 567.528C922.021 684.774 1126.05 854.363 1295.05 858.935C1523.43 865.104 1566.89 755.098 1774.08 1102.65C1803.01 1151.2 1859.75 1211.71 1909.18 1281.47ZM1910.5 1099.66L1910.9 1045.25L2004.75 1058.04L2094 980.476L1881.96 799.291L1413.96 362.042C1031.15 375.857 1116.19 425.209 770.107 254.016C729.164 233.765 686.823 213.819 642.232 196.703C612.207 225.243 582.809 253.14 555.699 278.856C685.551 344.31 795.229 441.948 932.322 555.383C1401.11 943.269 1556.86 610.455 1745.78 876.967C1803.7 958.682 1855.94 1028.37 1910.5 1099.66ZM1349.59 301.899L1339.82 292.772C1209.38 315.009 1131.37 295.435 990.034 289.914C1108.62 290.236 974.341 338.434 1349.59 301.899ZM1216.62 177.672L1137.18 103.447C1041.89 93.9708 970.493 51.7433 847.96 0C829.491 17.8544 808.862 37.6949 786.916 58.7229C949.514 123.754 1047.45 183.881 1216.62 177.672ZM-8.76968 1402.5L-7.35921 1554.41C0.226212 1566.25 6.30687 1581.18 10.5216 1599.89C43.5842 1746.68 -44.3421 1833.37 41.9184 2000H472.554C383.595 1952.26 311.9 1883.56 269.708 1818.37C145.671 1626.65 228.56 1426.88 112.197 1388.84C96.1322 1383.59 48.0432 1390.79 -8.76968 1402.5ZM-53.3825 1633.45H-115.41V1901.51C-89.7382 1934.54 -63.3725 1965.98 -38.2673 1995.29C-64.3165 1873.42 -43.8036 1731.12 -53.3825 1633.45ZM1122.75 2000H1664.81C1621.92 1931.18 1501.24 1979.44 1375.98 1935.65C1311.19 1913 1243.66 1853.82 1181.81 1902.21C1155.4 1922.87 1135.02 1960.28 1122.75 2000ZM1323.89 1098.35C1510.04 1034.82 1770.13 1360.16 1719.14 1483.29C1678.82 1580.64 1517.94 1548.36 1431.44 1506.09C1302.77 1443.21 1257.64 1424.01 1100.52 1461.24C902.952 1508.04 643.393 1647.14 681.131 1403.28C694.075 1319.58 734.623 1339.29 805.113 1354.58C1095.5 1417.59 1114.92 1169.67 1323.89 1098.35ZM1163.7 1517.51C1327.39 1490.13 1384.63 1578.33 1524.12 1605.79C1729.58 1646.24 1975.02 1496.09 1599.69 1127.81C1340.92 873.921 1172.14 1127.67 1013.65 1255.78C854.796 1384.17 732.63 1195.21 642.893 1317.93C615.456 1355.48 550.419 1621.03 785.139 1608C902.929 1601.48 1037.82 1538.56 1163.7 1517.51ZM1582.25 1420.87C1473.69 1481.66 1240.4 1226.5 1478.58 1223.83C1541.03 1355.71 1603.76 1343.71 1582.25 1420.87ZM1509.08 1163.98C1194.77 1120.21 1314.93 1421.38 1479.68 1488.51C1568.88 1524.84 1685.02 1489.59 1650.16 1363.81C1636.25 1313.57 1605.49 1302.79 1579.24 1268.12C1559.92 1242.61 1536.44 1201.93 1509.08 1163.98Z" stroke="url(#paint0_linear_71_1347)" stroke-opacity="0.02" stroke-width="8" mask="url(#path-1-inside-1_71_1347)"/>
<defs>
<linearGradient id="paint0_linear_71_1347" x1="960.5" y1="477.5" x2="960.5" y2="2000" gradientUnits="userSpaceOnUse">
<stop stop-color="#EBDEC5" stop-opacity="0"/>
<stop offset="1" stop-color="#EBDEC5"/>
</linearGradient>
</defs>
</svg>
