<svg width="165" height="134" viewBox="0 0 165 134" fill="none" xmlns="http://www.w3.org/2000/svg">
<g clip-path="url(#clip0_107_4882)">
<path d="M55.6587 46.5236C57.8911 48.5735 59.9917 50.7123 61.84 53.0478C63.7643 55.3157 65.5142 57.7121 67.0191 60.2412C70.0751 65.2434 72.4654 70.6324 73.5732 76.3338C74.9707 81.9767 75.0443 87.8719 74.4032 93.7076C74.125 96.6435 73.5475 99.5577 72.8244 102.452C72.2019 105.376 71.2628 108.232 70.3667 111.139L70.5589 111.233C73.1128 105.748 75.0724 99.9597 76.034 93.9696C77.0185 87.9936 76.9449 81.8164 75.6524 75.8813C74.3348 69.9484 71.8167 64.3114 68.3919 59.3068C64.9603 54.3201 60.7343 49.8384 55.7756 46.3488L55.6587 46.5236Z" fill="#995A29"/>
<path d="M66.9629 148.987C65.8647 144.844 65.5508 140.559 65.4751 136.273C65.4775 134.13 65.5796 131.979 65.751 129.832C65.923 127.684 66.2625 125.555 66.6336 123.422C67.3509 119.15 68.6267 114.975 70.1258 110.882C71.7052 106.818 73.6906 102.903 75.9649 99.1652C78.3461 95.4855 81.0037 91.9889 84.0073 88.8159C87.0565 85.6864 90.2995 82.7488 93.8867 80.2958C100.966 75.2967 108.926 71.7263 117.188 69.8231L117.335 70.178C109.612 73.3369 102.255 77.4444 95.7374 82.6455C89.2106 87.8275 83.5705 94.1078 79.1815 101.186C74.7343 108.217 71.516 116.024 69.5442 124.12C68.5516 128.17 67.8663 132.3 67.479 136.452C67.1095 140.605 66.9745 144.797 67.3363 148.934L66.9629 148.987Z" fill="#995A29"/>
<path d="M67.0512 125.655C69.1153 120.817 70.2409 115.701 70.1743 110.627C70.1632 105.553 69.0081 100.572 66.9387 96.0727C64.8143 91.6026 61.8509 87.5556 58.0677 84.4353C56.1968 82.8557 54.1772 81.4631 52.0134 80.3321C49.9984 79.2885 47.7179 78.6066 45.4347 78.3832C40.8516 77.836 36.0782 79.1387 32.3378 81.8873C30.4534 83.2404 28.822 84.9607 27.5573 86.9359C27.4074 87.1692 27.231 87.4736 27.12 87.6537L26.8893 88.0859L26.7272 88.4077C26.5079 88.8812 26.3086 89.4004 26.1455 89.9208C25.8294 90.9502 25.6655 92.0503 25.687 93.155C25.7076 95.3655 26.4751 97.5772 27.8146 99.4079C28.4762 100.334 29.2995 101.152 30.2308 101.821C30.7071 102.171 31.186 102.466 31.6521 102.675C32.14 102.883 32.6602 103.033 33.1943 103.124C35.3397 103.507 37.7406 102.633 39.2378 100.812C39.422 100.581 39.6022 100.343 39.7596 100.092C39.8954 99.8717 40.0265 99.6077 40.112 99.3459C40.2996 98.816 40.371 98.2395 40.3085 97.6461C40.2125 96.4787 39.5597 95.3053 38.497 94.5875L38.6345 94.3361C39.8273 94.9884 40.7009 96.1909 40.9553 97.5259C41.2388 98.8573 40.8314 100.303 40.0312 101.367C38.5062 103.587 35.7469 104.874 33.0595 104.624C31.7179 104.517 30.412 104 29.308 103.268C28.1853 102.55 27.1695 101.662 26.3258 100.616C24.6233 98.567 23.6071 95.9483 23.4513 93.2792C23.269 90.6127 24.0106 87.8943 25.4316 85.6453C26.7995 83.3711 28.6058 81.3544 30.7248 79.7506C34.9544 76.5157 40.4352 74.9855 45.7361 75.5451C48.3874 75.8398 50.9707 76.641 53.3272 77.8882C55.6578 79.1454 57.8475 80.6628 59.8339 82.4112C63.8186 85.9035 66.9685 90.3206 69.0096 95.2041C71.0468 100.089 71.9773 105.432 71.6819 110.707C71.397 115.986 69.8712 121.18 67.2998 125.787L67.0512 125.655Z" fill="#995A29"/>
<path d="M46.9416 52.9884C40.2627 50.5673 36.3404 44.4818 38.1784 39.3958C40.023 34.3073 46.9284 32.1504 53.6132 34.5768C60.2934 36.9974 64.2157 43.0829 62.3771 48.1692C60.5325 53.2577 53.6277 55.4142 46.9416 52.9884Z" fill="url(#paint0_radial_107_4882)"/>
<path d="M44.7583 42.3585C42.5364 41.6845 42.7958 41.508 42.6614 43.8242C43.3312 41.5985 43.511 41.8569 41.1938 41.7228C43.4178 42.3884 43.1589 42.5723 43.2867 40.2587C42.6248 42.4813 42.4431 42.2237 44.7583 42.3585Z" fill="#231F20"/>
<path d="M43.8302 40.4451C42.5068 42.3515 42.4121 42.045 44.5732 42.895C42.6671 41.5653 42.9658 41.4728 42.1277 43.6415C43.4478 41.7288 43.5393 42.0288 41.3793 41.1937C43.2843 42.5085 42.9817 42.6026 43.8302 40.4451Z" fill="#231F20"/>
<path d="M41.721 40.7339C43.1248 42.5854 42.8088 42.5779 44.2781 40.7829C42.4306 42.1903 42.4356 41.8759 44.2338 43.3463C42.8253 41.4966 43.1426 41.5036 41.678 43.2968C43.5195 41.8916 43.5139 42.2064 41.721 40.7339Z" fill="#231F20"/>
<path d="M41.3471 42.8297C43.5381 42.0672 43.4363 42.3657 42.1848 40.4096C42.9478 42.6077 42.6508 42.5014 44.6021 41.2444C42.411 42.0146 42.5147 41.7153 43.771 43.662C43.0012 41.474 43.3029 41.5786 41.3471 42.8297Z" fill="#231F20"/>
<path d="M43.2245 43.8351C43.1755 41.5135 43.4287 41.7055 41.1856 42.2899C43.5036 42.2407 43.3153 42.4887 42.725 40.2467C42.7773 42.567 42.526 42.382 44.7646 41.784C42.4492 41.8399 42.6382 41.5839 43.2245 43.8351Z" fill="#231F20"/>
<path d="M68.8768 46.2303C72.3529 40.0312 79.0021 37.1577 83.7138 39.8126C88.4282 42.4665 89.4279 49.6429 85.9492 55.8354C82.4677 62.0365 75.8245 64.9077 71.1096 62.2464C66.3951 59.6002 65.3954 52.4237 68.8768 46.2303Z" fill="url(#paint1_radial_107_4882)"/>
<path d="M81.0056 43.4888C82.8763 42.1257 82.8667 42.442 81.1032 40.9353C82.4672 42.8098 82.1512 42.7946 83.649 41.042C81.7844 42.395 81.7946 42.0785 83.5606 43.5995C82.1948 41.7105 82.5068 41.7272 81.0056 43.4888Z" fill="#231F20"/>
<path d="M83.084 43.9058C82.3613 41.6997 82.657 41.8065 80.6804 43.0199C82.8874 42.3045 82.7765 42.599 81.5719 40.6324C82.2829 42.8278 81.9833 42.7148 83.9768 41.5101C81.7587 42.2222 81.8697 41.9277 83.084 43.9058Z" fill="#231F20"/>
<path d="M84.1175 42.0582C81.802 42.0607 81.9943 41.8111 82.5376 44.0713C82.5355 41.7469 82.7813 41.9416 80.5388 42.4801C82.8424 42.4822 82.6488 42.7323 82.1129 40.4616C82.1102 42.7955 81.867 42.5997 84.1175 42.0582Z" fill="#231F20"/>
<path d="M82.6792 40.5019C81.968 42.7054 81.7916 42.4458 84.1036 42.6275C81.8961 41.9098 82.1581 41.7324 81.9777 44.0358C82.6933 41.8458 82.8691 42.1057 80.5473 41.9125C82.76 42.6358 82.5013 42.812 82.6792 40.5019Z" fill="#231F20"/>
<path d="M80.7563 41.3895C82.6324 42.746 82.3292 42.8327 83.2172 40.6905C81.8539 42.5665 81.7696 42.2636 83.9007 43.1481C82.0365 41.787 82.341 41.6998 81.4424 43.8538C82.813 41.9673 82.8953 42.2709 80.7563 41.3895Z" fill="#231F20"/>
<path d="M61.8401 82.889C55.9224 78.9617 53.5417 72.1206 56.5277 67.6127C59.5124 63.1053 66.7322 62.6338 72.656 66.5587C78.5821 70.498 80.9623 77.3317 77.9788 81.8463C74.9888 86.3557 67.7651 86.821 61.8401 82.889Z" fill="url(#paint2_radial_107_4882)"/>
<path d="M60.0079 70.5909C58.7895 68.6143 59.0992 68.6548 57.4609 70.294C59.4348 69.0817 59.4022 69.3916 57.761 67.7461C58.9707 69.726 58.6622 69.6927 60.294 68.0484C58.324 69.2668 58.3593 68.9559 60.0079 70.5909Z" fill="#231F20"/>
<path d="M60.5771 68.5339C58.3278 69.0826 58.4551 68.7971 59.512 70.8665C58.968 68.6142 59.2503 68.7415 57.1826 69.7918C59.4371 69.2487 59.3097 69.5343 58.2501 67.4736C58.8007 69.7233 58.5165 69.5967 60.5771 68.5339Z" fill="#231F20"/>
<path d="M58.7973 67.3533C58.6227 69.6621 58.3948 69.4528 60.6861 69.0937C58.3754 68.9114 58.5826 68.6788 58.9441 70.9711C59.1292 68.6583 59.361 68.8737 57.0723 69.2394C59.3838 69.4138 59.1732 69.6476 58.7973 67.3533Z" fill="#231F20"/>
<path d="M57.1299 68.6836C59.2716 69.5639 59.0006 69.7144 59.3617 67.425C58.4777 69.5657 58.3238 69.2973 60.6146 69.6627C58.4744 68.7741 58.7434 68.6168 58.3902 70.9107C59.267 68.7652 59.4203 69.0339 57.1299 68.6836Z" fill="#231F20"/>
<path d="M57.8767 70.6819C59.374 68.9142 59.4352 69.2184 57.3675 68.1647C59.1316 69.6711 58.8293 69.7345 59.8821 67.6659C58.3743 69.43 58.3118 69.1264 60.3802 70.1722C58.612 68.675 58.9189 68.6098 57.8767 70.6819Z" fill="#231F20"/>
<path fill-rule="evenodd" clip-rule="evenodd" d="M123.509 96.0461C123.509 96.0461 117.761 94.8743 114.484 93.8681C108.52 92.0553 110.544 92.7602 107.156 90.9965C103.703 89.2047 102.091 87.6929 98.3278 86.6537C95.4672 85.8605 95.8811 86.7526 92.8457 85.3332C93.5669 86.3582 95.8811 86.7526 95.8811 86.7526C95.8811 86.7526 91.7711 89.9718 93.5049 94.0972C95.2105 98.1574 102.296 100.711 107.668 100.199C112.067 99.7726 114.917 97.5737 116.967 97.2165C118.941 96.8657 123.375 95.9912 123.656 96.1494L123.509 96.0461Z" fill="url(#paint3_linear_107_4882)"/>
<path fill-rule="evenodd" clip-rule="evenodd" d="M110.566 81.3086C106.275 78.842 102.213 78.0326 99.7935 79.333C96.6772 81.0171 96.2902 85.4359 96.2902 85.4359C96.2902 85.4359 94.7615 85.4699 92.6911 85.0499C92.7275 85.1502 92.7791 85.2522 92.8455 85.3333C95.881 86.7528 95.467 85.8606 98.3276 86.6538C102.091 87.6931 103.703 89.2048 107.156 90.9967C110.544 92.7603 108.52 92.0554 114.484 93.8683C117.761 94.8744 123.509 96.0463 123.509 96.0463C117.616 91.7359 115.503 84.1585 110.566 81.3086Z" fill="url(#paint4_radial_107_4882)"/>
<path fill-rule="evenodd" clip-rule="evenodd" d="M100.381 46.5323C100.381 46.5323 100.321 52.4105 99.9648 55.8187C99.3183 62.0149 99.6233 59.892 98.5395 63.5583C97.4372 67.2928 96.2601 69.1579 95.9543 73.0573C95.726 76.012 96.5172 75.4395 95.6996 78.6905C96.5659 77.784 96.5172 75.4395 96.5172 75.4395C96.5172 75.4395 100.455 78.8663 104.173 76.3855C107.841 73.947 108.993 66.4958 107.466 61.3146C106.218 57.0775 103.52 54.6969 102.776 52.7504C102.058 50.8705 100.357 46.6789 100.46 46.3722L100.381 46.5323Z" fill="url(#paint5_linear_107_4882)"/>
<path fill-rule="evenodd" clip-rule="evenodd" d="M88.3847 62.0378C86.7777 66.7219 86.7561 70.87 88.4893 72.9983C90.7321 75.7379 95.1452 75.291 95.1452 75.291C95.1452 75.291 95.4724 76.7808 95.4519 78.8928C95.5397 78.836 95.6269 78.7719 95.6991 78.6906C96.5167 75.4396 95.7255 76.0121 95.9537 73.0575C96.2596 69.158 97.4366 67.2929 98.539 63.5584C99.6228 59.8921 99.3177 62.015 99.9643 55.8188C100.321 52.4106 100.381 46.5324 100.381 46.5324C97.2773 53.144 90.2406 56.6552 88.3847 62.0378Z" fill="url(#paint6_radial_107_4882)"/>
<path fill-rule="evenodd" clip-rule="evenodd" d="M153.722 55.5345C153.722 55.5345 146.216 59.8064 141.62 61.8716C133.267 65.6548 136.183 64.4672 130.728 65.8047C125.161 67.1624 121.911 67.0453 116.736 69.5477C112.805 71.4399 114.127 72.0269 109.385 73.3939C111.18 73.8362 114.127 72.0269 114.127 72.0269C114.127 72.0269 112.692 79.58 118.6 82.4739C124.43 85.322 134.751 81.2816 140.203 75.5008C144.661 70.7676 145.689 65.56 147.61 63.1787C149.457 60.872 153.524 55.6108 153.987 55.5084C153.896 55.5131 153.812 55.5303 153.722 55.5345Z" fill="url(#paint7_linear_107_4882)"/>
<path fill-rule="evenodd" clip-rule="evenodd" d="M125.12 51.7502C117.969 53.1706 112.685 56.2181 111.266 59.991C109.445 64.8876 113.293 70.1709 113.293 70.1709C113.293 70.1709 111.647 71.6912 108.937 73.2337C109.076 73.3017 109.224 73.3589 109.383 73.3891C114.125 72.0221 112.803 71.4351 116.734 69.543C121.91 67.0406 125.159 67.1576 130.726 65.7999C136.181 64.4624 133.265 65.65 141.618 61.8668C146.214 59.8016 153.72 55.5297 153.72 55.5297C143.023 56.4679 133.337 50.1233 125.12 51.7502Z" fill="url(#paint8_radial_107_4882)"/>
<mask id="mask0_107_4882" style="mask-type:luminance" maskUnits="userSpaceOnUse" x="33" y="88" width="20" height="21">
<path d="M40.0495 107.581C41.9741 108.682 44.4379 108.02 45.5418 106.084C45.863 105.534 46.0303 104.928 46.0677 104.326C46.1822 104.404 46.2962 104.482 46.4188 104.549C48.3498 105.663 50.8103 104.995 51.9103 103.06C53.0182 101.13 52.3473 98.6679 50.422 97.5667C50.2306 97.4577 50.031 97.3671 49.8306 97.292C50.3148 96.9601 50.7364 96.5152 51.0482 95.9754C52.152 94.0472 51.4825 91.5842 49.5566 90.4756C47.8234 89.4832 45.6612 89.9221 44.4435 91.4216C44.1528 90.4819 43.5237 89.65 42.6027 89.1214C40.6716 88.0149 38.2131 88.6825 37.1085 90.611C36.34 91.96 36.4336 93.5629 37.2139 94.7862C35.8437 94.8124 34.5255 95.5351 33.7902 96.8025C32.6889 98.7375 33.3591 101.2 35.2824 102.302C36.227 102.844 37.294 102.958 38.2662 102.712C37.6079 104.514 38.3262 106.592 40.0495 107.581Z" fill="white"/>
</mask>
<g mask="url(#mask0_107_4882)">
<path d="M40.0495 107.581C41.9741 108.682 44.4379 108.02 45.5418 106.084C45.863 105.534 46.0303 104.928 46.0677 104.326C46.1822 104.404 46.2962 104.482 46.4188 104.549C48.3498 105.663 50.8103 104.995 51.9103 103.06C53.0182 101.13 52.3473 98.6679 50.422 97.5667C50.2306 97.4577 50.031 97.3671 49.8306 97.292C50.3148 96.9601 50.7364 96.5152 51.0482 95.9754C52.152 94.0472 51.4825 91.5842 49.5566 90.4756C47.8234 89.4832 45.6612 89.9221 44.4435 91.4216C44.1528 90.4819 43.5237 89.65 42.6027 89.1214C40.6716 88.0149 38.2131 88.6825 37.1085 90.611C36.34 91.96 36.4336 93.5629 37.2139 94.7862C35.8437 94.8124 34.5255 95.5351 33.7902 96.8025C32.6889 98.7375 33.3591 101.2 35.2824 102.302C36.227 102.844 37.294 102.958 38.2662 102.712C37.6079 104.514 38.3262 106.592 40.0495 107.581Z" fill="url(#paint9_radial_107_4882)"/>
</g>
<path d="M40.3291 98.3648C42.8175 97.9067 43.1814 97.5374 43.6195 95.043C44.0868 97.5384 44.4541 97.8997 46.9472 98.3469C44.4575 98.8056 44.0929 99.1751 43.6483 101.664C43.1862 99.1747 42.8209 98.8126 40.3291 98.3648Z" fill="#231F20"/>
<path d="M40.7785 100.021C42.7033 98.378 42.8358 97.877 41.9679 95.4983C43.6164 97.423 44.1164 97.55 46.4966 96.6916C44.5705 98.3352 44.4387 98.8359 45.3006 101.217C43.6561 99.2907 43.1587 99.1626 40.7785 100.021Z" fill="#231F20"/>
<path d="M41.9929 101.229C42.8381 98.8441 42.7014 98.3403 40.7605 96.7116C43.1506 97.5569 43.6498 97.4175 45.2797 95.4842C44.4338 97.8694 44.5711 98.3728 46.5074 100.003C44.1213 99.1565 43.6234 99.2954 41.9929 101.229Z" fill="#231F20"/>
<path d="M22.195 107.299C22.9869 109.349 25.2938 110.371 27.342 109.58C29.3928 108.788 30.4107 106.481 29.6188 104.431C28.827 102.381 26.5227 101.358 24.4719 102.15C22.4237 102.941 21.4032 105.249 22.195 107.299Z" fill="#E84524"/>
<path d="M15.7529 91.9482C16.5448 93.998 18.8478 95.0142 20.8973 94.2225C22.9475 93.4305 23.9679 91.1304 23.1761 89.0806C22.3817 87.0241 20.0774 86.0008 18.0272 86.7927C15.9777 87.5845 14.9585 89.8917 15.7529 91.9482Z" fill="#E84524"/>
<path d="M26.7237 79.1256C27.5155 81.1754 29.8205 82.1986 31.87 81.4068C33.9201 80.6148 34.938 78.3081 34.1462 76.2583C33.3543 74.2085 31.05 73.1851 28.9999 73.9771C26.9504 74.7688 25.9318 77.0758 26.7237 79.1256Z" fill="#E84524"/>
<path d="M41.7706 73.1836C42.5624 75.2334 44.866 76.257 46.9169 75.4648C48.965 74.6736 49.9849 72.3661 49.193 70.3163C48.4012 68.2665 46.0949 67.2439 44.0467 68.0351C41.9959 68.8273 40.9787 71.1338 41.7706 73.1836Z" fill="#E84524"/>
<mask id="mask1_107_4882" style="mask-type:luminance" maskUnits="userSpaceOnUse" x="94" y="19" width="22" height="22">
<path d="M94.5312 31.8753C93.6471 29.5867 94.7842 27.0128 97.0683 26.1305C97.7285 25.8755 98.4124 25.7942 99.0762 25.858C99.0079 25.7167 98.9389 25.5756 98.8825 25.4297C98.001 23.1477 99.1367 20.582 101.421 19.6996C103.705 18.8172 106.273 19.9524 107.154 22.2343C107.241 22.4599 107.305 22.6944 107.353 22.92C107.796 22.4513 108.344 22.0645 108.989 21.8153C111.273 20.933 113.839 22.0686 114.723 24.3572C115.518 26.4137 114.679 28.6893 112.842 29.7648C113.82 30.2487 114.623 31.0666 115.046 32.1611C115.927 34.4431 114.794 37.0157 112.508 37.8989C110.917 38.5134 109.184 38.1384 107.982 37.0857C107.726 38.5721 106.723 39.8971 105.214 40.4801C102.931 41.362 100.362 40.2197 99.478 37.9311C99.0475 36.8166 99.1014 35.637 99.529 34.618C97.4542 35.0307 95.3179 33.9119 94.5312 31.8753Z" fill="white"/>
</mask>
<g mask="url(#mask1_107_4882)">
<path d="M94.5312 31.8753C93.6471 29.5867 94.7842 27.0128 97.0683 26.1305C97.7285 25.8755 98.4124 25.7942 99.0762 25.858C99.0079 25.7167 98.9389 25.5756 98.8825 25.4297C98.001 23.1477 99.1367 20.582 101.421 19.6996C103.705 18.8172 106.273 19.9524 107.154 22.2343C107.241 22.4599 107.305 22.6944 107.353 22.92C107.796 22.4513 108.344 22.0645 108.989 21.8153C111.273 20.933 113.839 22.0686 114.723 24.3572C115.518 26.4137 114.679 28.6893 112.842 29.7648C113.82 30.2487 114.623 31.0666 115.046 32.1611C115.927 34.4431 114.794 37.0157 112.508 37.8989C110.917 38.5134 109.184 38.1384 107.982 37.0857C107.726 38.5721 106.723 39.8971 105.214 40.4801C102.931 41.362 100.362 40.2197 99.478 37.9311C99.0475 36.8166 99.1014 35.637 99.529 34.618C97.4542 35.0307 95.3179 33.9119 94.5312 31.8753Z" fill="url(#paint10_radial_107_4882)"/>
</g>
<path d="M102.329 27.1936C104.146 29.3124 104.207 29.8836 102.871 32.3283C104.982 30.5065 105.55 30.4471 108.007 31.7776C106.175 29.6719 106.112 29.1017 107.443 26.6511C105.337 28.4785 104.77 28.5374 102.329 27.1936Z" fill="#231F20"/>
<path d="M101.561 28.9161C104.193 29.8433 104.53 30.3077 104.596 33.0951C105.514 30.4612 105.975 30.123 108.764 30.0443C106.129 29.1411 105.791 28.6772 105.72 25.8913C104.806 28.5237 104.347 28.8612 101.561 28.9161Z" fill="#231F20"/>
<path d="M101.759 30.7988C104.499 30.2815 105.021 30.5144 106.472 32.8965C105.95 30.1557 106.181 29.6319 108.558 28.1722C105.822 28.7031 105.299 28.4707 103.843 26.0904C104.37 28.8295 104.14 29.3527 101.759 30.7988Z" fill="#231F20"/>
</g>
<defs>
<radialGradient id="paint0_radial_107_4882" cx="0" cy="0" r="1" gradientTransform="matrix(-5.24635 14.5005 -14.4948 -5.25724 43.671 41.8558)" gradientUnits="userSpaceOnUse">
<stop stop-color="#600610"/>
<stop offset="0.0424242" stop-color="#600610"/>
<stop offset="0.957576" stop-color="#BE1E2D"/>
<stop offset="0.98202" stop-color="#BE1E2D"/>
<stop offset="1" stop-color="#BE1E2D"/>
</radialGradient>
<radialGradient id="paint1_radial_107_4882" cx="0" cy="0" r="1" gradientTransform="matrix(-13.4416 -7.56228 7.5506 -13.4455 80.3927 44.8235)" gradientUnits="userSpaceOnUse">
<stop stop-color="#600610"/>
<stop offset="0.0424242" stop-color="#600610"/>
<stop offset="0.957576" stop-color="#BE1E2D"/>
<stop offset="0.98202" stop-color="#BE1E2D"/>
<stop offset="1" stop-color="#BE1E2D"/>
</radialGradient>
<radialGradient id="paint2_radial_107_4882" cx="0" cy="0" r="1" gradientTransform="matrix(-8.51378 12.857 -12.854 -8.52572 61.2849 71.2944)" gradientUnits="userSpaceOnUse">
<stop stop-color="#600610"/>
<stop offset="0.0424242" stop-color="#600610"/>
<stop offset="0.957576" stop-color="#BE1E2D"/>
<stop offset="0.98202" stop-color="#BE1E2D"/>
<stop offset="1" stop-color="#BE1E2D"/>
</radialGradient>
<linearGradient id="paint3_linear_107_4882" x1="95.4557" y1="84.2334" x2="115.016" y2="101.085" gradientUnits="userSpaceOnUse">
<stop stop-color="#B02024"/>
<stop offset="0.41813" stop-color="#E9BA1F"/>
<stop offset="1" stop-color="#E9BA1F"/>
</linearGradient>
<radialGradient id="paint4_radial_107_4882" cx="0" cy="0" r="1" gradientTransform="matrix(10.2075 -9.82037 -9.82005 -10.2188 105.518 84.1276)" gradientUnits="userSpaceOnUse">
<stop stop-color="#B02024"/>
<stop offset="0.203956" stop-color="#B02024"/>
<stop offset="0.217041" stop-color="#B02024"/>
<stop offset="0.883967" stop-color="#E9BA1F"/>
<stop offset="1" stop-color="#E9BA1F"/>
</radialGradient>
<linearGradient id="paint5_linear_107_4882" x1="94.1267" y1="76.3325" x2="106.977" y2="53.9465" gradientUnits="userSpaceOnUse">
<stop stop-color="#B02024"/>
<stop offset="0.41813" stop-color="#E9BA1F"/>
<stop offset="1" stop-color="#E9BA1F"/>
</linearGradient>
<radialGradient id="paint6_radial_107_4882" cx="0" cy="0" r="1" gradientTransform="matrix(-11.5779 -8.17206 -8.16102 11.5804 92.1098 66.469)" gradientUnits="userSpaceOnUse">
<stop stop-color="#B02024"/>
<stop offset="0.203956" stop-color="#B02024"/>
<stop offset="0.217041" stop-color="#B02024"/>
<stop offset="0.883967" stop-color="#E9BA1F"/>
<stop offset="1" stop-color="#E9BA1F"/>
</radialGradient>
<linearGradient id="paint7_linear_107_4882" x1="111.213" y1="69.6458" x2="149.195" y2="69.3654" gradientUnits="userSpaceOnUse">
<stop stop-color="#B02024"/>
<stop offset="0.41813" stop-color="#E9BA1F"/>
<stop offset="1" stop-color="#E9BA1F"/>
</linearGradient>
<radialGradient id="paint8_radial_107_4882" cx="0" cy="0" r="1" gradientTransform="matrix(1.79409 -20.7844 -20.7731 -1.80629 122.249 59.766)" gradientUnits="userSpaceOnUse">
<stop stop-color="#B02024"/>
<stop offset="0.203956" stop-color="#B02024"/>
<stop offset="0.217041" stop-color="#B02024"/>
<stop offset="0.883967" stop-color="#E9BA1F"/>
<stop offset="1" stop-color="#E9BA1F"/>
</radialGradient>
<radialGradient id="paint9_radial_107_4882" cx="0" cy="0" r="1" gradientTransform="matrix(-4.79471 8.37394 -8.37157 -4.80204 43.6366 98.3583)" gradientUnits="userSpaceOnUse">
<stop stop-color="#FFF100"/>
<stop offset="0.0969697" stop-color="#FFF100"/>
<stop offset="0.957576" stop-color="#E84524"/>
<stop offset="1" stop-color="#E84524"/>
</radialGradient>
<radialGradient id="paint10_radial_107_4882" cx="0" cy="0" r="1" gradientUnits="userSpaceOnUse" gradientTransform="translate(105.159 29.4928) rotate(158.878) scale(10.6261 10.6346)">
<stop stop-color="#FFF100"/>
<stop offset="0.0969697" stop-color="#FFF100"/>
<stop offset="0.957576" stop-color="#E84524"/>
<stop offset="1" stop-color="#E84524"/>
</radialGradient>
<clipPath id="clip0_107_4882">
<rect width="142" height="88" fill="white" transform="matrix(-0.932818 0.360348 0.360348 0.932818 132.46 0)"/>
</clipPath>
</defs>
</svg>
