<svg width="28" height="28" viewBox="0 0 28 28" fill="none" xmlns="http://www.w3.org/2000/svg">
<path d="M0.245797 27.5702C0.842882 28.3486 2.18277 27.8945 2.77808 27.5702C12.4487 23.437 16.2896 17.0539 18 12.6C17.4989 17.8953 13.6403 21.5449 10.7748 24.4868C14.2933 26.3779 16.1725 24.5553 16.8789 22.9382C17.5853 21.3211 18.7181 21.3485 19.9976 21.2663C21.2771 21.1841 21.1971 21.2937 22.4233 20.2933C23.6359 19.304 23.4929 18.5961 22.9997 16.155L22.983 16.0724C22.4766 13.5646 25.0755 13.1397 26.0084 12.4956C26.9414 11.8515 27.5545 9.89184 26.2617 8.61735C24.9689 7.34286 24.649 6.60284 25.1688 4.98575C25.6886 3.36865 25.8219 1.53229 24.4491 0.463366C23.0763 -0.605558 21.0638 0.353733 20.2375 1.53229C19.4112 2.71085 18.3716 3.8757 17.3054 3.40976C16.2392 2.94382 15.7194 2.16268 13.467 3.24531C11.2146 4.32794 12.2009 6.67135 12.3741 8.53512C12.5474 10.3989 10.6415 8.23363 8.77562 10.3989C6.90973 12.5641 9.66858 14.4416 10.0151 15.812C10.3616 17.1824 9.68191 17.0865 9.48199 17.155C9.28208 17.2236 7.89599 17.0043 6.90973 18.4843C5.92347 19.9644 7.69607 21.9378 7.97595 22.3763C8.19986 22.7272 7.79381 23.1986 7.56279 23.3904C6.00344 24.6649 3.00469 26.0079 2.41826 26.2272C1.94913 26.4026 1.62746 26.3642 1.52526 26.3231C0.605647 25.7338 -0.500559 26.5972 0.245797 27.5702Z" fill="#A7582D"/>
<path d="M0.245797 27.5702C0.842882 28.3486 2.18277 27.8945 2.77808 27.5702C12.4487 23.437 16.2896 17.0539 18 12.6C17.4989 17.8953 13.6403 21.5449 10.7748 24.4868C14.2933 26.3779 16.1725 24.5553 16.8789 22.9382C17.5853 21.3211 18.7181 21.3485 19.9976 21.2663C21.2771 21.1841 21.1971 21.2937 22.4233 20.2933C23.6359 19.304 23.4929 18.5961 22.9997 16.155L22.983 16.0724C22.4766 13.5646 25.0755 13.1397 26.0084 12.4956C26.9414 11.8515 27.5545 9.89184 26.2617 8.61735C24.9689 7.34286 24.649 6.60284 25.1688 4.98575C25.6886 3.36865 25.8219 1.53229 24.4491 0.463366C23.0763 -0.605558 21.0638 0.353733 20.2375 1.53229C19.4112 2.71085 18.3716 3.8757 17.3054 3.40976C16.2392 2.94382 15.7194 2.16268 13.467 3.24531C11.2146 4.32794 12.2009 6.67135 12.3741 8.53512C12.5474 10.3989 10.6415 8.23363 8.77562 10.3989C6.90973 12.5641 9.66858 14.4416 10.0151 15.812C10.3616 17.1824 9.68191 17.0865 9.48199 17.155C9.28208 17.2236 7.89599 17.0043 6.90973 18.4843C5.92347 19.9644 7.69607 21.9378 7.97595 22.3763C8.19986 22.7272 7.79381 23.1986 7.56279 23.3904C6.00344 24.6649 3.00469 26.0079 2.41826 26.2272C1.94913 26.4026 1.62746 26.3642 1.52526 26.3231C0.605647 25.7338 -0.500559 26.5972 0.245797 27.5702Z" fill="url(#paint0_radial_71_1365)"/>
<defs>
<radialGradient id="paint0_radial_71_1365" cx="0" cy="0" r="1" gradientTransform="matrix(28.8524 20.5027 -3.33737 -66.8686 1.03846 28)" gradientUnits="userSpaceOnUse">
<stop stop-color="#BC7B07"/>
<stop offset="0.276137" stop-color="#F3D373"/>
<stop offset="0.657427" stop-color="#EBA322"/>
<stop offset="1" stop-color="#F3D373"/>
</radialGradient>
</defs>
</svg>
