<svg width="85" height="102" viewBox="0 0 85 102" fill="none" xmlns="http://www.w3.org/2000/svg">
<path fill-rule="evenodd" clip-rule="evenodd" d="M33.9947 7.86169V7.51161C32.9039 7.10313 31.671 6.7293 30.4882 6.50037V7.13335C31.3958 7.22295 32.2516 7.41465 33.3216 7.85956C34.2828 8.25918 35.1899 8.75788 35.9583 9.27484C36.9937 9.97154 37.1348 10.2937 37.9721 11.0872C41.1063 14.0584 37.9788 12.0041 42.5489 14.6162C43.5151 15.1682 44.2072 15.5244 44.3719 16.9231C44.5032 18.0374 44.3007 19.4679 43.8552 20.3259C42.3236 23.2757 40.0354 19.8083 39.2922 19.074C34.0955 13.9381 29.3186 16.5608 25.5968 18.0537L25.7032 18.1572L26.9957 18.0166L26.9993 18.408C28.7744 17.6462 30.5608 17.0146 32.3344 18.1799C36.4311 20.8714 35.0042 24.9321 36.9242 26.9559C39.8433 30.033 42.4873 25.8383 47.1581 26.193C50.1718 26.4223 54.7507 30.0856 57.3816 27.4496C57.4731 27.3579 57.5532 27.2613 57.6227 27.1606L57.6448 24.1177C57.3413 23.3354 56.9113 22.6423 56.6136 22.2448L53.8627 18.3179C50.6209 13.5462 48.5665 18.1991 44.2376 15.0705C42.8817 14.0908 41.4081 13.251 40.4575 12.1776C39.4012 10.985 38.3884 9.94867 36.9979 8.95579C36.4761 8.58311 35.4681 8.08095 34.2567 7.61149C34.1481 7.71492 34.0596 7.79939 33.9947 7.86169ZM33.9947 5.07747V4.55953H35.05L35.103 3.49663L29.535 3.38203V4.50716C29.6097 4.50769 29.6856 4.50813 29.764 4.50831C31.3975 4.51176 32.7719 4.71392 33.9947 5.07747ZM30.4882 8.23259V8.64125C32.7885 9.09113 36.233 11.3969 37.1732 12.6054C38.7723 14.6616 36.8485 15.1332 35.9049 15.6788C37.6732 16.1132 38.5473 16.9287 39.4989 17.9149C40.678 19.1371 41.5467 20.253 42.6979 20.3253C43.9214 17.4796 43.7635 16.4346 41.2972 15.151C38.1804 13.529 39.2016 13.8021 37.0019 11.58C35.5573 10.1205 34.5005 9.35204 32.1496 8.56237C31.8298 8.45496 31.2202 8.33691 30.4882 8.23259ZM30.4882 9.79243V9.97881C32.4163 10.7545 33.307 11.6102 31.6205 13.3966C31.5865 13.4328 31.5031 13.5941 31.4781 13.5504C31.4525 13.5059 31.3778 13.6524 31.3336 13.7084C32.9238 13.8621 35.096 14.666 36.5782 14.2395C36.5938 12.5527 32.8416 10.4141 30.4882 9.79243ZM30.4882 11.0937V11.1638L28.502 13.0496C29.7565 12.9255 30.9902 12.745 31.4257 11.9141C31.191 11.5452 30.8727 11.2815 30.4882 11.0937ZM25.4623 15.9356L24.4287 16.9169L24.7602 17.2395C26.4817 16.5987 27.8707 15.7825 29.6083 15.3301C30.5387 15.088 31.576 15.1209 32.3956 14.8824C30.4398 14.6546 28.9201 15.2504 27.0817 15.6916C26.6029 15.8067 26.0447 15.8783 25.4623 15.9356ZM27.0102 19.5773L27.016 20.2048C30.0189 18.8077 32.0874 17.677 33.4882 24.8938C34.0274 27.6727 34.9372 28.1474 37.2458 30.211C37.642 30.5651 38.3637 31.1974 39.0689 31.2664C40.8819 31.4435 42.0901 29.8632 42.9127 29.1715C46.348 26.282 53.7073 31.6414 57.593 29.8077C58.3494 29.4507 58.9142 29.0395 59.3222 28.5895V27.5381H58.6358C58.0232 28.5064 56.4971 29.4862 55.2465 29.4968C54.0381 29.507 51.6724 28.7367 50.5075 28.3755C48.6342 27.7945 48.0519 27.0996 45.7194 27.2505C42.537 27.4561 36.6494 33.0137 34.7562 24.1267C34.1084 21.0856 32.2065 17.5939 28.5565 18.8217C27.8843 19.0477 27.4435 19.3195 27.0102 19.5773ZM27.027 21.3856L27.04 22.7853C28.0797 22.5825 28.9088 22.4649 29.1712 22.527C32.7315 23.369 29.1952 28.547 34.9332 32.2965C35.7935 32.8587 36.9345 33.0656 37.9831 33.3934H44.0118C44.7466 31.442 45.8332 29.7367 48.1265 30.7584C52.3938 32.6594 51.1202 30.8814 53.4356 31.8678C54.2044 32.1954 54.6451 32.7646 54.8816 33.3934H59.3222V30.0896C58.3139 30.8548 57.0247 31.2384 55.7602 31.1673C52.9414 31.0088 50.7322 30.5309 48.1941 29.7292C43.849 28.3571 44.0881 29.9894 41.7435 31.5823C38.6067 33.7135 37.0679 31.1866 35.53 30.0198C33.3271 28.3482 32.9742 27.6239 32.2919 24.1946C31.6403 20.9201 31.081 19.2964 27.8446 20.9838C27.5723 21.1258 27.3003 21.26 27.027 21.3856ZM57.6607 21.9157L57.6694 20.7184C57.0508 19.895 56.4629 19.1933 56.0992 18.7025C52.0979 13.3037 53.6426 14.9826 48.3358 14.5303C44.9132 14.2383 42.4563 11.9216 40.5352 10.5114C41.9054 12.3842 45.1619 15.0932 47.859 15.1662C51.504 15.2648 52.1976 13.5076 55.5045 19.0593C55.9662 19.8348 56.8718 20.8013 57.6607 21.9157ZM57.6818 19.0115L57.6881 18.1424L59.1859 18.3466L60.6104 17.1077L57.2262 14.2135L49.7568 7.22898C43.6471 7.44966 45.0044 8.23799 39.4809 5.50341C38.8274 5.17992 38.1516 4.8613 37.44 4.58789C36.9608 5.04379 36.4916 5.48941 36.0589 5.90019C38.1313 6.94573 39.8818 8.50539 42.0698 10.3174C49.5517 16.5134 52.0376 11.1971 55.0528 15.4543C55.9772 16.7596 56.8109 17.8727 57.6818 19.0115ZM48.7295 6.26826L48.5736 6.12247C46.4918 6.47769 45.2468 6.16501 42.9909 6.07682C44.8837 6.08196 42.7405 6.85187 48.7295 6.26826ZM46.6074 4.2839L45.3395 3.09825C43.8185 2.94687 42.6791 2.27234 40.7234 1.4458C40.4286 1.731 40.0994 2.04793 39.7491 2.38383C42.3442 3.42263 43.9073 4.38307 46.6074 4.2839ZM27.0499 23.849L27.0724 26.2756C27.1934 26.4648 27.2905 26.7032 27.3577 27.0021C27.8854 29.3468 26.4821 30.7316 27.8588 33.3934H34.7319C33.3121 32.6308 32.1678 31.5334 31.4944 30.492C29.5148 27.4296 30.8377 24.2386 28.9805 23.6308C28.7241 23.5469 27.9566 23.6619 27.0499 23.849ZM26.3378 27.5381H25.3479V31.8201C25.7576 32.3477 26.1784 32.8499 26.5791 33.3181C26.1633 31.3713 26.4907 29.0983 26.3378 27.5381ZM45.109 33.3934H53.7605C53.0759 32.2941 51.15 33.0649 49.1507 32.3655C48.1167 32.0036 47.0388 31.0583 46.0517 31.8312C45.6303 32.1614 45.3049 32.7589 45.109 33.3934ZM48.3194 18.9907C51.2903 17.9757 55.4414 23.1726 54.6276 25.1396C53.9841 26.6946 51.4165 26.179 50.0358 25.5037C47.9823 24.4993 47.2621 24.1926 44.7544 24.7873C41.6011 25.535 37.4585 27.7569 38.0608 23.8614C38.2674 22.5244 38.9145 22.8393 40.0396 23.0836C44.6741 24.0901 44.9842 20.1299 48.3194 18.9907ZM45.7628 25.6862C48.3752 25.2488 49.2887 26.6577 51.515 27.0964C54.7943 27.7424 58.7115 25.3441 52.7211 19.4612C48.5912 15.4056 45.8974 19.4589 43.3678 21.5054C40.8325 23.5562 38.8827 20.5378 37.4505 22.4982C37.0126 23.098 35.9746 27.3398 39.7208 27.1317C41.6007 27.0275 43.7536 26.0224 45.7628 25.6862ZM52.4428 24.1425C50.7102 25.1135 46.9869 21.0376 50.7882 20.9951C51.7849 23.1016 52.7862 22.9099 52.4428 24.1425ZM51.275 20.039C46.2586 19.3398 48.1764 24.1506 50.8057 25.2229C52.2294 25.8033 54.083 25.2401 53.5267 23.2309C53.3046 22.4284 52.8137 22.2563 52.3948 21.7025C52.0864 21.295 51.7118 20.6453 51.275 20.039Z" fill="#EBDEC5"/>
<path fill-rule="evenodd" clip-rule="evenodd" d="M42.6242 0.147951C42.6242 0.147951 45.666 3.45002 45.6661 3.45002C45.8377 3.6364 45.8258 3.92656 45.6394 4.09823C45.4531 4.2699 45.1629 4.25794 44.9913 4.07165C44.9913 4.07156 41.9495 0.76958 41.9495 0.769492C41.7778 0.583198 41.7897 0.292945 41.9761 0.121363C42.1624 -0.0503075 42.4526 -0.0384315 42.6242 0.147951Z" fill="#EBDEC5"/>
<path fill-rule="evenodd" clip-rule="evenodd" d="M34.0109 4.59545L34.0416 7.43462C34.0443 7.68791 33.8412 7.89556 33.5879 7.89822C33.3346 7.90097 33.127 7.69784 33.1243 7.44454C33.1243 7.44446 33.0935 4.60538 33.0935 4.60538C33.0909 4.35199 33.294 4.14443 33.5473 4.14177C33.8006 4.13902 34.0082 4.34216 34.0109 4.59545Z" fill="#EBDEC5"/>
<path d="M33.5259 47.8992H32.2362V45.3689C32.2362 44.5636 32.0513 43.829 31.6812 43.1651C31.3765 42.6102 31.0445 42.2455 30.6853 42.0714H30.163V47.8992H28.8734V42.0714H28.3511C27.9919 42.2455 27.66 42.6102 27.3552 43.1651C26.9852 43.829 26.8002 44.5636 26.8002 45.3689V47.8992H25.5105V45.3499C25.5105 44.5419 25.6683 43.8018 25.984 43.1243C26.3649 42.2753 26.9091 41.8075 27.6164 41.7204C26.9416 41.655 26.4084 41.2714 26.0166 40.575C25.6792 39.9764 25.5105 39.3099 25.5105 38.5806V36.717H26.8002V38.5998C26.8002 39.19 26.9471 39.7805 27.241 40.3682C27.5783 41.0238 27.9973 41.4564 28.498 41.6633H28.8734V36.717H30.163V41.6633H30.5384C31.0391 41.4564 31.4581 41.0238 31.7954 40.3682C32.0893 39.7805 32.2362 39.19 32.2362 38.5998V36.717H33.5259V38.5806C33.5259 39.3099 33.3572 39.9764 33.0198 40.575C32.628 41.2714 32.0948 41.655 31.42 41.7204C32.1273 41.8075 32.6716 42.2753 33.0524 43.1243C33.3681 43.8018 33.5259 44.5419 33.5259 45.3499V47.8992ZM39.5823 47.8992H38.2926V40.9748L36.1215 42.689V47.8992H34.8318V36.717H36.1215V42.0225L38.2926 40.3083V36.717H39.5823V47.8992ZM45.9 46.1661C45.9217 46.5689 45.6606 46.9524 45.1164 47.3115C44.8878 47.4639 44.5015 47.6598 43.9573 47.8992C43.8159 47.9428 43.609 48.0352 43.337 48.1767C43.2716 48.1115 43.073 48.0298 42.7411 47.9318C42.4092 47.8338 42.2051 47.7577 42.129 47.7033C41.6609 47.355 41.3508 46.9605 41.1985 46.5252C40.9916 45.9484 40.8882 45.0369 40.8882 43.7963V39.3153C40.8882 38.869 41.0488 38.3629 41.37 37.797C41.691 37.2285 42.0472 36.8693 42.4391 36.717H42.9288C43.0051 36.717 43.1411 36.6191 43.337 36.4232C43.522 36.6191 43.658 36.717 43.7451 36.717H44.2348C44.9204 36.9237 45.3178 37.0624 45.4266 37.1278C45.6551 37.2801 45.7965 37.5495 45.851 37.9303C45.8836 38.1834 45.9 38.8663 45.9 39.9818C45.9 40.1233 45.802 40.273 45.6061 40.4253C45.5218 40.4906 45.3856 40.5885 45.2007 40.722L43.1329 42.319L45.6223 43.5107L45.7367 43.508L45.7394 43.5651L45.8537 43.6168L45.753 43.7963L45.9 46.1661ZM44.6102 40.4552C44.6102 40.2593 44.6157 39.96 44.6266 39.5601C44.6375 39.1629 44.643 38.8636 44.643 38.6677C44.643 38.208 44.5667 37.895 44.4143 37.7319C44.3056 37.612 43.9464 37.4189 43.337 37.1576C43.0213 37.3319 42.7493 37.6419 42.5208 38.0827C42.2921 38.5262 42.178 38.9371 42.178 39.3208V42.3325L44.6102 40.4552ZM44.643 46.1689L44.4471 43.5406L42.6187 42.6917L42.178 42.7897V43.8018L42.3113 46.1525C42.4418 46.6313 42.7901 47.0939 43.3532 47.54C43.5301 47.4204 43.7912 47.2244 44.1396 46.9524C44.4851 46.6803 44.6539 46.4192 44.643 46.1689ZM54.3559 47.8992H53.0663V36.717H54.3559V47.8992ZM51.8583 47.3306C51.8583 47.5128 51.6843 47.6653 51.336 47.7849C51.0747 47.8611 50.819 47.8992 50.5687 47.8992H47.2058V36.717H48.4955V41.6633H48.8709C48.9579 41.6633 49.0124 41.6633 49.0342 41.6633C49.143 41.6633 49.1974 41.6633 49.1974 41.6633C49.2953 41.6633 49.4179 41.6769 49.5648 41.704C49.7117 41.7313 49.7742 41.7448 49.7525 41.7448C50.4598 41.832 51.0041 42.2972 51.3849 43.146C51.7004 43.818 51.8583 44.5553 51.8583 45.3581V47.3306ZM50.5687 45.3689C50.5687 44.5636 50.3838 43.829 50.0136 43.1651C49.709 42.6102 49.3771 42.2455 49.0178 42.0714H48.4955V47.491H50.5687V45.3689ZM60.6736 46.1689C60.6736 46.5823 60.4069 46.9633 59.8736 47.3115C59.6451 47.4639 59.2642 47.6598 58.7309 47.8992C58.5895 47.9428 58.3827 48.0352 58.1106 48.1767C58.0453 48.1115 57.8467 48.0298 57.5148 47.9318C57.1829 47.8338 56.9788 47.7577 56.9026 47.7033C56.4346 47.355 56.1245 46.9633 55.9721 46.5279C55.7871 46.0056 55.6838 45.0969 55.6619 43.8018V39.318C55.6619 38.8718 55.8225 38.3629 56.1436 37.797C56.4646 37.2285 56.8209 36.8693 57.2128 36.717H57.7025C57.7787 36.717 57.9148 36.6191 58.1106 36.4232C58.2957 36.6191 58.4316 36.717 58.5187 36.717H59.0084C59.803 36.9565 60.26 37.1523 60.3798 37.3072C60.5647 37.536 60.6627 38.1563 60.6736 39.1711C60.6736 39.3479 60.6681 39.6092 60.6572 39.9573C60.1458 40.5042 58.9105 41.4484 56.9517 42.7897V43.8018C56.9407 45.0098 56.9842 45.7935 57.0822 46.1525C57.2128 46.6313 57.5556 47.0939 58.1106 47.54C58.2738 47.4204 58.5269 47.2244 58.8697 46.9524C59.2125 46.6803 59.3839 46.4192 59.3839 46.1689V44.2098H60.6736V46.1689ZM59.3839 40.3246C59.3839 38.5943 58.9568 37.544 58.1025 37.174C57.7895 37.3481 57.5202 37.6555 57.2917 38.0964C57.0658 38.5371 56.9517 38.9479 56.9517 39.3287V42.1694L59.3839 40.3246Z" fill="#EBDEC5"/>
<path d="M16.1186 86.315H12.231V65.097L5.68606 73.3808V86.315H1.79834V52.6057H5.68606V70.666L12.231 62.3002V52.6057H16.1186V86.315ZM35.5076 78.3428C35.5076 78.9005 35.5241 79.7536 35.5568 80.9018C35.5897 82.0501 35.6061 82.903 35.6061 83.4608C35.6061 84.7075 35.442 85.5113 35.114 85.8721C34.7859 86.233 34.015 86.4135 32.801 86.4135C32.2761 86.4135 31.4806 86.4135 30.4143 86.4135C29.3481 86.4135 28.5525 86.4135 28.0276 86.4135H20.4984V74.7013L24.3861 78.6874V85.0848H26.6005C26.9613 85.0848 27.4945 85.1012 28.1999 85.134C28.9052 85.1668 29.4383 85.1831 29.7992 85.1831C30.685 85.1831 31.2427 84.9535 31.4724 84.4942C31.6036 84.2317 31.6692 83.592 31.6692 82.575C31.6692 81.3611 31.6692 80.7542 31.6692 80.7542C31.6364 78.8186 31.62 77.9655 31.62 78.1953V73.5202L25.239 68.1891L31.1771 63.7766V58.4618C30.6194 56.0341 30.3077 54.7545 30.2421 54.6234C30.1109 54.0984 29.8321 53.836 29.4055 53.836H28.8642C28.6017 53.836 28.3721 53.836 28.1752 53.836H24.9273V60.2662L21.0397 64.2686V52.6057H27.0434C26.781 52.6057 27.6339 52.6057 29.6023 52.6057C29.6023 52.6057 30.2257 52.6057 31.4724 52.6057C32.9487 52.6057 33.8344 52.9337 34.1297 53.5899C34.1625 53.6883 34.4743 55.4107 35.0647 58.7652V62.6037L27.7324 68.0578L35.5076 74.7013V78.3428ZM54.2076 64.2686L50.1724 60.2662V53.836H43.9226V67.5166H45.0545C45.1528 67.5166 45.2842 67.5166 45.4481 67.5166H46.0387C46.4324 67.5166 46.9081 67.5575 47.4658 67.6313C47.6627 67.6641 47.7611 67.6888 47.7611 67.7134C48.5813 67.8118 49.4178 68.2055 50.2708 68.8944C52.7969 70.9613 54.06 74.2092 54.06 78.6381V84.5926C54.06 85.1831 53.5352 85.6425 52.4853 85.9706C51.7307 86.2001 50.9598 86.315 50.1724 86.315H40.035V52.6057H54.2076V64.2686ZM50.1724 78.6874C50.1724 75.4395 49.2374 72.6672 47.3674 70.3708C46.744 69.5834 46.1207 69.0421 45.4974 68.7468H43.9226V85.0848H50.1724V78.6874ZM72.1696 84.6009C72.1696 85.1504 71.6447 85.6096 70.5948 85.9706C69.8076 86.2001 69.0365 86.315 68.282 86.315H58.1446V52.6057H62.0322V67.5166H63.1641C63.4265 67.5166 63.5906 67.5166 63.6562 67.5166C63.9842 67.5166 64.1483 67.5166 64.1483 67.5166C64.4435 67.5166 64.8126 67.5575 65.2555 67.6395C65.6984 67.7216 65.8871 67.7625 65.8215 67.7625C67.9538 68.0251 69.5942 69.4276 70.7425 71.9865C71.6939 74.0123 72.1696 76.235 72.1696 78.6545V84.6009ZM68.282 78.6874C68.282 76.2595 67.7243 74.0452 66.6088 72.0439C65.6902 70.3708 64.6896 69.2717 63.6069 68.7468H62.0322V85.0848H68.282V78.6874ZM84.1405 69.1159C84.1405 70.3625 82.9595 71.2155 80.5974 71.6748V84.6419L83.304 86.315H73.8555L76.5622 84.6419V71.6748C74.3967 71.2155 73.3142 70.3462 73.3142 69.0667C73.3142 67.8856 74.3967 67.0654 76.5622 66.6061V54.2789L73.8555 52.6057H83.304L80.5974 54.2789V66.6061C82.9595 67.0654 84.1405 67.902 84.1405 69.1159Z" fill="#EBDEC5"/>
<path d="M23.6716 98.0871H22.8749V96.5014H24.9839V95.9H22.2266V101.368H23.6716C24.6636 101.368 25.2807 100.774 25.2807 99.7116C25.2807 98.7041 24.6636 98.0871 23.6716 98.0871ZM23.6482 100.766H22.8749V98.6806H23.6482C24.2341 98.6806 24.6245 99.0243 24.6245 99.7116C24.6245 100.415 24.2341 100.766 23.6482 100.766ZM28.4363 101.368H29.1081L27.7021 95.9H27.0069L25.601 101.368H26.2727L26.5617 100.18H28.1474L28.4363 101.368ZM26.7023 99.5867L27.1475 97.7355C27.2334 97.384 27.3115 96.9232 27.3427 96.7123H27.3661C27.3975 96.9232 27.4755 97.384 27.5616 97.7355L28.0067 99.5867H26.7023ZM32.131 95.9V98.2901H30.3968V95.9H29.7485V101.368H30.3968V98.8915H32.131V101.368H32.7792V95.9H32.131ZM36.302 95.9V98.2901H34.5678V95.9H33.9195V101.368H34.5678V98.8915H36.302V101.368H36.9503V95.9H36.302ZM38.0905 101.368H39.4106C40.4416 101.368 41.0431 100.782 41.0431 99.7429C41.0431 98.7509 40.4416 98.1338 39.4106 98.1338H38.7466V95.9H38.0905V101.368ZM41.7461 101.368H42.3866V95.9H41.7461V101.368ZM38.7466 100.766V98.7432H39.3872C40.0042 98.7432 40.3792 99.0791 40.3792 99.7429C40.3792 100.423 40.0042 100.766 39.3872 100.766H38.7466ZM45.1204 95.3767C45.6592 95.3767 46.0029 95.0409 46.0265 94.4549H45.55C45.5343 94.7596 45.3937 94.9157 45.1125 94.9157C44.8391 94.9157 44.6985 94.7596 44.6751 94.4549H44.2065C44.2299 95.0409 44.5736 95.3767 45.1204 95.3767ZM43.5346 101.368H44.2065L45.7062 97.9698C45.8155 97.7198 45.9717 97.3137 46.0499 97.1106L46.0654 97.1263C46.0499 97.4621 46.0342 98.0635 46.0342 98.3917V101.368H46.6669V95.9H45.9795L44.5266 99.2118C44.3784 99.5321 44.2299 99.9147 44.144 100.141L44.1205 100.126C44.1517 99.7507 44.1674 99.1415 44.1674 98.8135V95.9H43.5346V101.368ZM52.0718 101.368H52.814L50.9394 98.2823L52.5952 95.9H51.822L50.5878 97.7434L50.1818 98.3995V95.9H49.5412V101.368H50.1818V99.3837L50.5566 98.8368L52.0718 101.368ZM53.728 95.9C53.6419 98.1338 53.5638 99.5164 53.4859 100.094C53.4155 100.587 53.2436 100.844 52.8921 100.844V101.446C53.5795 101.446 53.9856 101.071 54.1029 100.219C54.1966 99.5554 54.2668 98.1573 54.345 96.5014H55.618V101.368H56.2586V95.9H53.728ZM59.4143 95.9L58.5551 98.7666L57.5631 95.9H56.8913L58.2738 99.7195L58.1566 100.102C58.0083 100.587 57.8208 100.852 57.3991 100.852H57.1961V101.446H57.3834C58.1411 101.446 58.5003 101.063 58.7348 100.297L60.0781 95.9H59.4143ZM62.1168 98.0871H61.32V96.5014H63.4291V95.9H60.6718V101.368H62.1168C63.1088 101.368 63.7259 100.774 63.7259 99.7116C63.7259 98.7041 63.1088 98.0871 62.1168 98.0871ZM62.0935 100.766H61.32V98.6806H62.0935C62.6793 98.6806 63.0697 99.0243 63.0697 99.7116C63.0697 100.415 62.6793 100.766 62.0935 100.766Z" fill="#EBDEC5"/>
<path d="M18.1155 25.6573H20.1873V25.2193H18.595C18.595 24.1655 20.1518 23.5736 20.1518 22.4193C20.1518 21.8983 19.7848 21.4483 19.1396 21.4483C18.5536 21.4483 18.1805 21.8628 18.145 22.5258H18.6008C18.6128 22.1055 18.8139 21.8863 19.1396 21.8863C19.4888 21.8863 19.6843 22.1292 19.6843 22.4311C19.6843 23.3664 18.1155 23.9229 18.1155 25.308V25.6573ZM21.7501 25.7165C22.3895 25.7165 22.8039 25.2785 22.8039 24.5976V22.579C22.8039 21.8923 22.3895 21.4543 21.7501 21.4543C21.1108 21.4543 20.6964 21.8923 20.6964 22.579V24.5976C20.6964 25.2785 21.1108 25.7165 21.7501 25.7165ZM21.7501 25.2725C21.3713 25.2725 21.1521 25.0239 21.1521 24.5976V22.579C21.1521 22.147 21.3713 21.8983 21.7501 21.8983C22.129 21.8983 22.348 22.147 22.348 22.579V24.5976C22.348 25.0239 22.129 25.2725 21.7501 25.2725Z" fill="#EBDEC5"/>
<path d="M61.656 25.7606H63.7278V25.3226H62.1355C62.1355 24.2688 63.6923 23.6768 63.6923 22.5226C63.6923 22.0015 63.3253 21.5516 62.68 21.5516C62.094 21.5516 61.721 21.9661 61.6855 22.629H62.1413C62.1533 22.2087 62.3545 21.9896 62.68 21.9896C63.0294 21.9896 63.2248 22.2324 63.2248 22.5343C63.2248 23.4696 61.656 24.0261 61.656 25.4113V25.7606ZM65.2493 22.9724C65.0184 22.9724 64.835 23.0493 64.6928 23.1678V22.043H66.0425V21.6167H64.2252V23.8367H64.681C64.7403 23.5703 64.9178 23.4164 65.1901 23.4164C65.5394 23.4164 65.6933 23.6295 65.6933 24.1208V24.5411C65.6933 25.1626 65.5157 25.3698 65.1901 25.3698C64.8586 25.3698 64.6751 25.1746 64.6574 24.7423H64.1896C64.2133 25.429 64.5921 25.8258 65.1901 25.8258C65.7999 25.8258 66.1669 25.4113 66.1669 24.5411V24.1208C66.1669 23.3809 65.8058 22.9724 65.2493 22.9724Z" fill="#EBDEC5"/>
<path fill-rule="evenodd" clip-rule="evenodd" d="M0 91.3494H85V91.9642H0V91.3494Z" fill="#EBDEC5"/>
</svg>
