<svg width="163" height="165" viewBox="0 0 163 165" fill="none" xmlns="http://www.w3.org/2000/svg">
<path d="M40.02 -16.8093C40.9553 -15.3129 41.5866 -13.647 41.878 -11.9065C42.1695 -10.1661 42.1152 -8.38536 41.7184 -6.66591C41.3216 -4.94646 40.59 -3.322 39.5654 -1.88528C38.5408 -0.448561 37.2433 0.772278 35.7469 1.70753C19.3921 11.8945 6.39951 26.6723 -1.60937 44.1969C6.47849 43.5206 14.5822 45.3012 21.6414 49.306C28.7007 53.3107 34.3867 59.353 37.9557 66.6422C41.5247 73.9315 42.8103 82.1283 41.6444 90.1602C40.4785 98.1921 36.9154 105.685 31.4212 111.659C25.927 117.632 18.7576 121.809 10.8511 123.641C2.94453 125.473 -5.33097 124.876 -12.8927 121.928C-20.4545 118.98 -26.9503 113.818 -31.5303 107.118C-36.1104 100.418 -38.5613 92.4911 -38.5625 84.375V84.0122C-38.5479 82.972 -38.5031 81.9324 -38.4281 80.8947C-38.3072 78.8791 -38.0653 76.0572 -37.595 72.5903C-36.6544 65.6969 -34.8134 56.1966 -31.0912 45.5272C-23.6737 24.1616 -8.65063 -2.24309 21.5031 -21.0825C22.9995 -22.0177 24.6655 -22.6491 26.4059 -22.9405C28.1463 -23.2319 29.9271 -23.1777 31.6466 -22.7809C33.366 -22.3841 34.9905 -21.6525 36.4272 -20.6279C37.8639 -19.6033 39.0847 -18.3058 40.02 -16.8093ZM134.083 -16.8093C135.018 -15.3129 135.649 -13.647 135.941 -11.9065C136.232 -10.1661 136.178 -8.38536 135.781 -6.66591C135.384 -4.94646 134.653 -3.322 133.628 -1.88528C132.603 -0.448561 131.306 0.772278 129.809 1.70753C113.455 11.8945 100.462 26.6723 92.4531 44.1969C100.541 43.5206 108.645 45.3012 115.704 49.306C122.763 53.3107 128.449 59.353 132.018 66.6422C135.587 73.9315 136.873 82.1283 135.707 90.1602C134.541 98.1921 130.978 105.685 125.484 111.659C119.99 117.632 112.82 121.809 104.914 123.641C97.007 125.473 88.7315 124.876 81.1698 121.928C73.608 118.98 67.1122 113.818 62.5322 107.118C57.9521 100.418 55.5012 92.4911 55.5 84.375V84.0122C55.5146 82.972 55.5594 81.9324 55.6344 80.8947C55.7553 78.8791 55.9972 76.0572 56.4675 72.5903C57.4081 65.6969 59.2491 56.1966 62.9713 45.5272C70.3888 24.1616 85.4119 -2.24309 115.566 -21.0825C117.062 -22.0177 118.728 -22.6491 120.468 -22.9405C122.209 -23.2319 123.99 -23.1777 125.709 -22.7809C127.429 -22.3841 129.053 -21.6525 130.49 -20.6279C131.926 -19.6033 133.147 -18.3058 134.083 -16.8093Z" fill="white" fill-opacity="0.02"/>
</svg>
